<svg width="88" height="16" viewBox="0 0 88 16" fill="none" xmlns="http://www.w3.org/2000/svg">
<path d="M0.916432 6.01594L3.64162 8.67244L2.99806 12.4244C2.97006 12.5885 3.03743 12.7543 3.17218 12.8523C3.24831 12.9079 3.33887 12.9359 3.42943 12.9359C3.49899 12.9359 3.56899 12.9193 3.63287 12.8856L7.00249 11.1141L10.3717 12.8851C10.5187 12.963 10.6976 12.9503 10.8324 12.8519C10.9671 12.7539 11.0345 12.5881 11.0065 12.424L10.3629 8.672L13.0886 6.01594C13.2076 5.89956 13.2509 5.72544 13.1992 5.5675C13.1476 5.40956 13.0107 5.29363 12.8457 5.26956L9.07931 4.72269L7.39493 1.30931C7.24749 1.0105 6.75749 1.0105 6.61006 1.30931L4.92568 4.72269L1.15924 5.26956C0.994307 5.29363 0.857369 5.40913 0.805744 5.5675C0.754119 5.72588 0.797432 5.89913 0.916432 6.01594Z" fill="#5DC397"/>
<path d="M16.9164 6.01594L19.6416 8.67244L18.9981 12.4244C18.9701 12.5885 19.0374 12.7543 19.1722 12.8523C19.2483 12.9079 19.3389 12.9359 19.4294 12.9359C19.499 12.9359 19.569 12.9193 19.6329 12.8856L23.0025 11.1141L26.3717 12.8851C26.5187 12.963 26.6976 12.9503 26.8324 12.8519C26.9671 12.7539 27.0345 12.5881 27.0065 12.424L26.3629 8.672L29.0886 6.01594C29.2076 5.89956 29.2509 5.72544 29.1992 5.5675C29.1476 5.40956 29.0107 5.29363 28.8457 5.26956L25.0793 4.72269L23.3949 1.30931C23.2475 1.0105 22.7575 1.0105 22.6101 1.30931L20.9257 4.72269L17.1592 5.26956C16.9943 5.29363 16.8574 5.40913 16.8057 5.5675C16.7541 5.72588 16.7974 5.89913 16.9164 6.01594Z" fill="#5DC397"/>
<path d="M32.9164 6.01594L35.6416 8.67244L34.9981 12.4244C34.9701 12.5885 35.0374 12.7543 35.1722 12.8523C35.2483 12.9079 35.3389 12.9359 35.4294 12.9359C35.499 12.9359 35.569 12.9193 35.6329 12.8856L39.0025 11.1141L42.3717 12.8851C42.5187 12.963 42.6976 12.9503 42.8324 12.8519C42.9671 12.7539 43.0345 12.5881 43.0065 12.424L42.3629 8.672L45.0886 6.01594C45.2076 5.89956 45.2509 5.72544 45.1992 5.5675C45.1476 5.40956 45.0107 5.29363 44.8457 5.26956L41.0793 4.72269L39.3949 1.30931C39.2475 1.0105 38.7575 1.0105 38.6101 1.30931L36.9257 4.72269L33.1592 5.26956C32.9943 5.29363 32.8574 5.40913 32.8057 5.5675C32.7541 5.72588 32.7974 5.89913 32.9164 6.01594Z" fill="#5DC397"/>
<path d="M48.9164 6.01594L51.6416 8.67244L50.9981 12.4244C50.9701 12.5885 51.0374 12.7543 51.1722 12.8523C51.2483 12.9079 51.3389 12.9359 51.4294 12.9359C51.499 12.9359 51.569 12.9193 51.6329 12.8856L55.0025 11.1141L58.3717 12.8851C58.5187 12.963 58.6976 12.9503 58.8324 12.8519C58.9671 12.7539 59.0345 12.5881 59.0065 12.424L58.3629 8.672L61.0886 6.01594C61.2076 5.89956 61.2509 5.72544 61.1992 5.5675C61.1476 5.40956 61.0107 5.29363 60.8457 5.26956L57.0793 4.72269L55.3949 1.30931C55.2475 1.0105 54.7575 1.0105 54.6101 1.30931L52.9257 4.72269L49.1592 5.26956C48.9943 5.29363 48.8574 5.40913 48.8057 5.5675C48.7541 5.72588 48.7974 5.89913 48.9164 6.01594Z" fill="#5DC397"/>
<path d="M64.9164 6.01594L67.6416 8.67244L66.9981 12.4244C66.9701 12.5885 67.0374 12.7543 67.1722 12.8523C67.2483 12.9079 67.3389 12.9359 67.4294 12.9359C67.499 12.9359 67.569 12.9193 67.6329 12.8856L71.0025 11.1141L74.3717 12.8851C74.5187 12.963 74.6976 12.9503 74.8324 12.8519C74.9671 12.7539 75.0345 12.5881 75.0065 12.424L74.3629 8.672L77.0886 6.01594C77.2076 5.89956 77.2509 5.72544 77.1992 5.5675C77.1476 5.40956 77.0107 5.29363 76.8457 5.26956L73.0793 4.72269L71.3949 1.30931C71.2475 1.0105 70.7575 1.0105 70.6101 1.30931L68.9257 4.72269L65.1592 5.26956C64.9943 5.29363 64.8574 5.40913 64.8057 5.5675C64.7541 5.72588 64.7974 5.89913 64.9164 6.01594Z" fill="#5DC397"/>
</svg>
