<svg width="88" height="16" viewBox="0 0 88 16" fill="none" xmlns="http://www.w3.org/2000/svg">
<path d="M1.04735 6.87536L4.16185 9.91136L3.42635 14.1994C3.39435 14.3869 3.47135 14.5764 3.62535 14.6884C3.71235 14.7519 3.81585 14.7839 3.91935 14.7839C3.99885 14.7839 4.07885 14.7649 4.15185 14.7264L8.00285 12.7019L11.8534 14.7259C12.0214 14.8149 12.2259 14.8004 12.3799 14.6879C12.5339 14.5759 12.6109 14.3864 12.5789 14.1989L11.8434 9.91086L14.9584 6.87536C15.0944 6.74236 15.1439 6.54336 15.0849 6.36286C15.0259 6.18236 14.8694 6.04986 14.6809 6.02236L10.3764 5.39736L8.45135 1.49636C8.28285 1.15486 7.72285 1.15486 7.55435 1.49636L5.62935 5.39736L1.32485 6.02236C1.13635 6.04986 0.979852 6.18186 0.920852 6.36286C0.861852 6.54386 0.911352 6.74186 1.04735 6.87536Z" fill="#5DC397"/>
<path d="M19.0474 6.87536L22.1619 9.91136L21.4264 14.1994C21.3944 14.3869 21.4714 14.5764 21.6254 14.6884C21.7124 14.7519 21.8159 14.7839 21.9194 14.7839C21.9989 14.7839 22.0789 14.7649 22.1519 14.7264L26.0029 12.7019L29.8534 14.7259C30.0214 14.8149 30.2259 14.8004 30.3799 14.6879C30.5339 14.5759 30.6109 14.3864 30.5789 14.1989L29.8434 9.91086L32.9584 6.87536C33.0944 6.74236 33.1439 6.54336 33.0849 6.36286C33.0259 6.18236 32.8694 6.04986 32.6809 6.02236L28.3764 5.39736L26.4514 1.49636C26.2829 1.15486 25.7229 1.15486 25.5544 1.49636L23.6294 5.39736L19.3249 6.02236C19.1364 6.04986 18.9799 6.18186 18.9209 6.36286C18.8619 6.54386 18.9114 6.74186 19.0474 6.87536Z" fill="#5DC397"/>
<path d="M37.0474 6.87536L40.1619 9.91136L39.4264 14.1994C39.3944 14.3869 39.4714 14.5764 39.6254 14.6884C39.7124 14.7519 39.8159 14.7839 39.9194 14.7839C39.9989 14.7839 40.0789 14.7649 40.1519 14.7264L44.0029 12.7019L47.8534 14.7259C48.0214 14.8149 48.2259 14.8004 48.3799 14.6879C48.5339 14.5759 48.6109 14.3864 48.5789 14.1989L47.8434 9.91086L50.9584 6.87536C51.0944 6.74236 51.1439 6.54336 51.0849 6.36286C51.0259 6.18236 50.8694 6.04986 50.6809 6.02236L46.3764 5.39736L44.4514 1.49636C44.2829 1.15486 43.7229 1.15486 43.5544 1.49636L41.6294 5.39736L37.3249 6.02236C37.1364 6.04986 36.9799 6.18186 36.9209 6.36286C36.8619 6.54386 36.9114 6.74186 37.0474 6.87536Z" fill="#5DC397"/>
<path d="M55.0474 6.87536L58.1619 9.91136L57.4264 14.1994C57.3944 14.3869 57.4714 14.5764 57.6254 14.6884C57.7124 14.7519 57.8159 14.7839 57.9194 14.7839C57.9989 14.7839 58.0789 14.7649 58.1519 14.7264L62.0029 12.7019L65.8534 14.7259C66.0214 14.8149 66.2259 14.8004 66.3799 14.6879C66.5339 14.5759 66.6109 14.3864 66.5789 14.1989L65.8434 9.91086L68.9584 6.87536C69.0944 6.74236 69.1439 6.54336 69.0849 6.36286C69.0259 6.18236 68.8694 6.04986 68.6809 6.02236L64.3764 5.39736L62.4514 1.49636C62.2829 1.15486 61.7229 1.15486 61.5544 1.49636L59.6294 5.39736L55.3249 6.02236C55.1364 6.04986 54.9799 6.18186 54.9209 6.36286C54.8619 6.54386 54.9114 6.74186 55.0474 6.87536Z" fill="#5DC397"/>
<path d="M73.0474 6.87536L76.1619 9.91136L75.4264 14.1994C75.3944 14.3869 75.4714 14.5764 75.6254 14.6884C75.7124 14.7519 75.8159 14.7839 75.9194 14.7839C75.9989 14.7839 76.0789 14.7649 76.1519 14.7264L80.0029 12.7019L83.8534 14.7259C84.0214 14.8149 84.2259 14.8004 84.3799 14.6879C84.5339 14.5759 84.6109 14.3864 84.5789 14.1989L83.8434 9.91086L86.9584 6.87536C87.0944 6.74236 87.1439 6.54336 87.0849 6.36286C87.0259 6.18236 86.8694 6.04986 86.6809 6.02236L82.3764 5.39736L80.4514 1.49636C80.2829 1.15486 79.7229 1.15486 79.5544 1.49636L77.6294 5.39736L73.3249 6.02236C73.1364 6.04986 72.9799 6.18186 72.9209 6.36286C72.8619 6.54386 72.9114 6.74186 73.0474 6.87536Z" fill="#5DC397"/>
</svg>
