<svg width="111" height="29" viewBox="0 0 111 29" fill="none" xmlns="http://www.w3.org/2000/svg">
<path d="M15.593 13.7744C15.593 13.7744 21.6743 11.3048 23.7834 10.4352C24.5919 10.0874 27.3337 8.97431 27.3337 8.97431C27.3337 8.97431 28.5992 8.48737 28.4938 9.66998C28.4586 10.157 28.1774 11.8613 27.8962 13.7048C27.4743 16.3136 27.0174 19.1658 27.0174 19.1658C27.0174 19.1658 26.9471 19.9658 26.3495 20.105C25.7519 20.2441 24.7676 19.618 24.5919 19.4789C24.4513 19.3745 21.9555 17.8093 21.0415 17.044C20.7955 16.8353 20.5143 16.418 21.0767 15.931C22.3422 14.7831 23.8537 13.357 24.7676 12.4527C25.1895 12.0352 25.6113 11.0613 23.8537 12.2439C21.3579 13.9483 18.8973 15.5484 18.8973 15.5484C18.8973 15.5484 18.3348 15.8962 17.2803 15.5831C16.2257 15.2701 14.9954 14.8527 14.9954 14.8527C14.9954 14.8527 14.1518 14.3309 15.593 13.7744Z" fill="#50776A"/>
<path d="M40.605 10.179V11.136H38.218V18H37.129V11.136H34.841V10.179H40.605ZM43.4316 17.043H47.8976V18H42.3866V10.179H47.7326V11.114H43.4316V13.589H47.0836V14.524H43.4316V17.043ZM54.7647 16.999V18H49.6827V10.179H50.7607V16.999H54.7647ZM57.5618 17.043H62.0278V18H56.5168V10.179H61.8628V11.114H57.5618V13.589H61.2138V14.524H57.5618V17.043ZM69.8684 18H69.0544L68.9774 16.042C68.8527 16.724 68.5667 17.2483 68.1194 17.615C67.672 17.9817 67.0854 18.165 66.3594 18.165C65.3474 18.165 64.581 17.8533 64.0604 17.23C63.5397 16.5993 63.2794 15.6753 63.2794 14.458V13.842C63.2794 12.6247 63.5764 11.6897 64.1704 11.037C64.7644 10.377 65.6077 10.047 66.7004 10.047C67.639 10.047 68.3797 10.289 68.9224 10.773C69.4724 11.2497 69.7804 11.928 69.8464 12.808H68.7354C68.6694 12.2213 68.4604 11.7777 68.1084 11.477C67.7637 11.169 67.2907 11.015 66.6894 11.015C65.9267 11.015 65.351 11.257 64.9624 11.741C64.5737 12.225 64.3794 12.94 64.3794 13.886V14.425C64.372 15.349 64.5554 16.042 64.9294 16.504C65.3107 16.9587 65.879 17.186 66.6344 17.186C67.3017 17.186 67.8187 16.9917 68.1854 16.603C68.552 16.2143 68.7427 15.679 68.7574 14.997L66.5134 14.986V14.062H69.8684V18ZM75.0021 14.964H73.1321V18H72.0651V10.179H75.0901C76.0508 10.179 76.7731 10.3733 77.2571 10.762C77.7484 11.1433 77.9941 11.7153 77.9941 12.478C77.9941 12.9913 77.8731 13.4167 77.6311 13.754C77.3964 14.084 77.0408 14.3223 76.5641 14.469C77.0041 14.579 77.3194 14.788 77.5101 15.096C77.7081 15.3967 77.8071 15.8257 77.8071 16.383V17.604C77.8071 17.6847 77.8218 17.7617 77.8511 17.835C77.8804 17.901 77.9244 17.956 77.9831 18H76.8281C76.7914 17.9633 76.7584 17.9083 76.7291 17.835C76.7071 17.7543 76.6961 17.6737 76.6961 17.593V16.405C76.6961 15.877 76.5678 15.5067 76.3111 15.294C76.0618 15.074 75.6254 14.964 75.0021 14.964ZM76.9051 12.544C76.9051 12.0673 76.7511 11.7117 76.4431 11.477C76.1424 11.235 75.6841 11.114 75.0681 11.114H73.1321V14.04H75.0351C75.6364 14.04 76.0984 13.9117 76.4211 13.655C76.7438 13.3983 76.9051 13.028 76.9051 12.544ZM86.4064 18H85.3064L84.5474 15.965H81.1924L80.4554 18H79.3554L82.2814 10.179H83.3924L86.4064 18ZM82.8424 11.312L82.8094 11.466L81.5224 15.041H84.1954L82.8644 11.466L82.8424 11.312ZM91.4975 15.085L89.1325 11.928L89.0445 11.774V18H88.0215V10.179H89.0335L91.6185 13.644L94.2035 10.19H95.2155V18H94.1815V11.752L94.0715 11.928L91.6955 15.085H91.4975Z" fill="#50776A"/>
<rect x="1.25" y="0.5" width="108.75" height="28" rx="3.5" stroke="#50776A"/>
</svg>
