<svg width="85" height="29" viewBox="0 0 85 29" fill="none" xmlns="http://www.w3.org/2000/svg">
<path d="M24.4719 8.07451C23.4216 8.35661 22.597 9.19858 22.3149 10.2662C22.2238 10.6091 22.2238 11.3556 22.3149 11.6984C22.6014 12.7835 23.3999 13.5907 24.4719 13.8902C25.1012 14.0638 26.0257 13.9813 26.5769 13.7035C26.8763 13.5473 27.2886 13.2305 27.4752 13.0048L27.6315 12.8138L27.2669 12.5274C27.0629 12.3711 26.8937 12.2409 26.885 12.2409C26.8763 12.2409 26.7678 12.3321 26.6463 12.4493C25.6481 13.3867 24.0987 13.1307 23.5301 11.9285C23.1135 11.0474 23.2914 10.0492 23.9815 9.4069C24.2289 9.17688 24.4546 9.05102 24.7974 8.96422C25.2531 8.84704 25.8825 8.91214 26.2861 9.11612L26.4597 9.20292V9.70202V10.2011H26.9588H27.4579V9.48936V8.77326L27.2973 8.63871C27.089 8.46511 26.5161 8.18735 26.1776 8.09621C26.0257 8.05281 25.6828 8.01809 25.353 8.00507C24.8842 7.99205 24.7323 8.00073 24.4719 8.07451Z" fill="#50776A"/>
<path d="M15.6123 8.59166V9.06906L15.7338 9.0734C15.7989 9.0734 15.9986 9.0734 16.1765 9.0734C16.3545 9.06906 16.5281 9.08642 16.5628 9.10812C16.5975 9.12982 17.0098 10.2192 17.4785 11.5299L18.3335 13.9082H18.8022H19.2753L20.1737 11.4995L21.0721 9.09076L21.5538 9.07774L22.0399 9.06472L22.0269 8.60034L22.0139 8.13595L21.1676 8.12293L20.3212 8.11425L19.6051 10.2018C19.2145 11.3476 18.8804 12.2937 18.8673 12.3024C18.85 12.3111 18.5158 11.378 18.1208 10.2278L17.4047 8.13595L16.5064 8.12293L15.6123 8.11425V8.59166Z" fill="#50776A"/>
<path d="M16.0062 15.5864L16.0192 16.0334L16.4879 16.0464L16.9523 16.0595V17.9864V19.9177H16.4749H15.9932L16.0062 20.3821L16.0192 20.8509L18.2239 20.8639L20.4243 20.8726V20.3952V19.9177H19.1874H17.9505V18.7763C17.9505 17.5134 17.9766 17.3267 18.2196 16.871C18.3628 16.602 18.6493 16.3155 18.9053 16.1853C19.0399 16.1159 19.4392 16.0117 19.565 16.0117C19.5954 16.0117 19.6041 16.1506 19.5911 16.4457L19.5694 16.8797H20.0641H20.5545V16.0117V15.1437H20.0034C19.3784 15.1437 19.131 15.1958 18.7404 15.4041C18.493 15.5343 18.1024 15.8945 17.9462 16.1419C17.8767 16.2504 17.8724 16.2461 17.8464 15.9249C17.8333 15.747 17.816 15.4996 17.8073 15.3824L17.7986 15.1654L16.8959 15.1524L15.9932 15.1437L16.0062 15.5864Z" fill="#50776A"/>
<path d="M21.6443 15.6443V16.1434H22.0783H22.5123V17.6754C22.5123 19.3203 22.5253 19.4635 22.751 19.9539C22.8812 20.236 23.2284 20.6049 23.4975 20.7525C23.862 20.9521 24.1702 21.0172 24.6563 20.9955C25.0208 20.9825 25.138 20.9608 25.3507 20.861C25.6892 20.7047 25.9322 20.5008 26.1406 20.197L26.3098 19.9496L26.3836 20.4009C26.4227 20.6483 26.4574 20.8567 26.4574 20.8653C26.4617 20.8697 26.8089 20.8697 27.2343 20.8653L28.0024 20.8523L28.0155 20.3836L28.0285 19.9192H27.6422H27.256L27.2299 19.0382C27.2126 18.5564 27.1995 17.4844 27.1995 16.6512V15.1452H26.2013H25.2031V15.6443V16.1434H25.7022H26.2013V17.3325C26.2013 18.6042 26.1753 18.8602 26.0017 19.2118C25.6588 19.9192 24.8212 20.2794 24.1919 19.993C23.9141 19.8671 23.7232 19.6371 23.6103 19.2942C23.5452 19.1033 23.5365 18.8082 23.5192 17.1069L23.5062 15.1452H22.5731H21.6443V15.6443Z" fill="#50776A"/>
<path d="M14.0347 19.9047C14.0217 19.9221 14.0087 20.1478 14.0087 20.4038L14 20.8726H14.5251H15.0503L15.0373 20.3821L15.0242 19.896L14.5382 19.883C14.2734 19.8787 14.0434 19.8874 14.0347 19.9047Z" fill="#50776A"/>
<path d="M41.1236 10.179L38.2526 18H37.1746L34.2706 10.179H35.4036L37.7246 16.526L39.9906 10.179H41.1236ZM47.732 15.184H48.876C48.7733 16.1593 48.4397 16.9 47.875 17.406C47.3103 17.912 46.533 18.165 45.543 18.165C44.443 18.165 43.6033 17.846 43.024 17.208C42.4447 16.57 42.155 15.6423 42.155 14.425V13.853C42.155 12.6503 42.4557 11.7153 43.057 11.048C43.6583 10.3807 44.5017 10.047 45.587 10.047C46.5403 10.047 47.292 10.289 47.842 10.773C48.392 11.2497 48.7183 11.95 48.821 12.874H47.699C47.6257 12.258 47.4093 11.796 47.05 11.488C46.698 11.1727 46.2103 11.015 45.587 11.015C44.839 11.015 44.2633 11.2643 43.86 11.763C43.4567 12.2617 43.255 12.9767 43.255 13.908V14.381C43.255 15.2757 43.453 15.9613 43.849 16.438C44.2523 16.9073 44.8317 17.142 45.587 17.142C46.2177 17.142 46.7163 16.977 47.083 16.647C47.4497 16.3097 47.666 15.822 47.732 15.184ZM52.2549 17.329C52.2549 17.6003 52.1925 17.802 52.0679 17.934C51.9432 18.0587 51.7415 18.121 51.4629 18.121C51.1695 18.121 50.9642 18.0623 50.8469 17.945C50.7295 17.8203 50.6709 17.615 50.6709 17.329C50.6709 17.0577 50.7332 16.8597 50.8579 16.735C50.9899 16.603 51.1952 16.537 51.4739 16.537C51.7452 16.537 51.9432 16.603 52.0679 16.735C52.1925 16.8597 52.2549 17.0577 52.2549 17.329ZM57.5 14.964H55.63V18H54.563V10.179H57.588C58.5487 10.179 59.271 10.3733 59.755 10.762C60.2463 11.1433 60.492 11.7153 60.492 12.478C60.492 12.9913 60.371 13.4167 60.129 13.754C59.8943 14.084 59.5387 14.3223 59.062 14.469C59.502 14.579 59.8173 14.788 60.008 15.096C60.206 15.3967 60.305 15.8257 60.305 16.383V17.604C60.305 17.6847 60.3197 17.7617 60.349 17.835C60.3783 17.901 60.4223 17.956 60.481 18H59.326C59.2893 17.9633 59.2563 17.9083 59.227 17.835C59.205 17.7543 59.194 17.6737 59.194 17.593V16.405C59.194 15.877 59.0657 15.5067 58.809 15.294C58.5597 15.074 58.1233 14.964 57.5 14.964ZM59.403 12.544C59.403 12.0673 59.249 11.7117 58.941 11.477C58.6403 11.235 58.182 11.114 57.566 11.114H55.63V14.04H57.533C58.1343 14.04 58.5963 13.9117 58.919 13.655C59.2417 13.3983 59.403 13.028 59.403 12.544ZM65.4186 18.165C64.3846 18.165 63.6219 17.879 63.1306 17.307C62.6466 16.7277 62.4046 15.8257 62.4046 14.601V10.179H63.5046V14.557C63.5046 15.459 63.6549 16.1153 63.9556 16.526C64.2636 16.9293 64.7513 17.131 65.4186 17.131C66.0786 17.131 66.5553 16.9293 66.8486 16.526C67.1493 16.1227 67.2996 15.4663 67.2996 14.557V10.179H68.4216V14.601C68.4216 15.7963 68.1723 16.691 67.6736 17.285C67.1823 17.8717 66.4306 18.165 65.4186 18.165Z" fill="#50776A"/>
<rect x="0.5" y="0.5" width="83.0286" height="28" rx="3.5" stroke="#50776A"/>
</svg>
