<svg width="64" height="29" viewBox="0 0 64 29" fill="none" xmlns="http://www.w3.org/2000/svg">
<path fill-rule="evenodd" clip-rule="evenodd" d="M27.6788 10.9057C27.7762 10.5812 27.6788 10.3428 27.2157 10.3428H25.6841C25.2946 10.3428 25.1151 10.5487 25.0179 10.776C25.0179 10.776 24.2389 12.6744 23.1355 13.9077C22.7787 14.2647 22.6164 14.3784 22.4215 14.3784C22.3243 14.3784 22.1833 14.2647 22.1833 13.9403V10.9057C22.1833 10.5164 22.0703 10.3428 21.7458 10.3428H19.3387C19.0954 10.3428 18.9489 10.5235 18.9489 10.695C18.9489 11.0641 19.5006 11.1493 19.5576 12.1878V14.4432C19.5576 14.9377 19.4683 15.0277 19.2735 15.0277C18.7544 15.0277 17.4913 13.1205 16.7421 10.9384C16.5953 10.5142 16.4481 10.3429 16.0568 10.3429H14.5252C14.0874 10.3428 14 10.5487 14 10.7758C14 11.1815 14.5191 13.1937 16.4177 15.8548C17.6833 17.672 19.4664 18.6573 21.0892 18.6573C22.0626 18.6573 22.1832 18.4384 22.1832 18.0615V16.6881C22.1832 16.2503 22.2754 16.1631 22.5837 16.1631C22.8109 16.1631 23.2002 16.2765 24.109 17.1527C25.1475 18.1912 25.3186 18.6571 25.9028 18.6571H27.4345C27.8719 18.6571 28.0907 18.4382 27.9646 18.0066C27.8263 17.5761 27.3305 16.9517 26.6727 16.2118C26.3157 15.7899 25.7801 15.3355 25.6179 15.1082C25.3906 14.8163 25.4556 14.6865 25.6179 14.4267C25.6179 14.4267 27.4842 11.7982 27.6788 10.9057Z" fill="#50776A"/>
<path d="M41.095 10.179L38.224 18H37.146L34.242 10.179H35.375L37.696 16.526L39.962 10.179H41.095ZM49.1267 18H47.9167L45.4417 13.721L43.7807 15.47V18H42.7137V10.179H43.7807V14.205L47.5867 10.179H48.9287L46.2117 13.039L49.1267 18Z" fill="#50776A"/>
<rect x="0.5" y="0.5" width="63" height="28" rx="3.5" stroke="#50776A"/>
</svg>
