<svg width="134" height="30" viewBox="0 0 134 30" fill="none" xmlns="http://www.w3.org/2000/svg">
<g clip-path="url(#clip0_6_553)">
<path d="M28.75 15.075V14.925C25.65 14.825 24.235 14.75 23.1 13.65C22 12.515 21.92 11.1 21.825 8H21.675C21.575 11.1 21.5 12.515 20.4 13.65C19.265 14.75 17.85 14.83 14.75 14.925V15.075C17.85 15.175 19.265 15.25 20.4 16.35C21.5 17.485 21.58 18.9 21.675 22H21.825C21.925 18.9 22 17.485 23.1 16.35C24.235 15.25 25.65 15.17 28.75 15.075Z" fill="#50776A"/>
</g>
<path d="M36.675 16.74V18.005C36.675 18.1077 36.6603 18.2067 36.631 18.302C36.609 18.39 36.576 18.456 36.532 18.5H35.399C35.4503 18.4487 35.4907 18.3827 35.52 18.302C35.5493 18.214 35.564 18.115 35.564 18.005V16.718C35.564 16.1753 35.6703 15.761 35.883 15.475C36.0957 15.189 36.4403 14.9947 36.917 14.892C36.4477 14.7233 36.0883 14.4703 35.839 14.133C35.597 13.7957 35.476 13.3923 35.476 12.923C35.476 12.175 35.729 11.614 36.235 11.24C36.741 10.866 37.4927 10.679 38.49 10.679H41.328V18.5H40.25V15.442H38.072C37.5293 15.442 37.159 15.5337 36.961 15.717C36.7703 15.893 36.675 16.234 36.675 16.74ZM36.609 13.044C36.609 13.528 36.774 13.8947 37.104 14.144C37.434 14.386 37.9253 14.507 38.578 14.507H40.25V11.625H38.501C37.8557 11.625 37.379 11.7423 37.071 11.977C36.763 12.2043 36.609 12.56 36.609 13.044ZM44.7456 18.5H43.6676V10.679H44.7456V14.078H48.6726V10.679H49.7506V18.5H48.6726V15.09H44.7456V18.5ZM58.3398 20.172V18.5H52.2788V20.172H51.2448V17.565H52.1028C52.4035 17.1617 52.6198 16.6923 52.7518 16.157C52.8838 15.6143 52.9682 14.7747 53.0048 13.638L53.1258 10.679H58.3618V17.565H59.3738V20.172H58.3398ZM54.1268 11.614L54.0498 13.627C54.0132 14.705 53.9435 15.5227 53.8408 16.08C53.7455 16.6373 53.5805 17.1323 53.3458 17.565H57.2838V11.614H54.1268ZM62.1195 17.543H66.5855V18.5H61.0745V10.679H66.4205V11.614H62.1195V14.089H65.7715V15.024H62.1195V17.543ZM69.502 18.5H68.435V10.679H69.502V14.078H71.086L73.528 10.679H74.727L71.955 14.496L74.771 18.5H73.539L71.13 15.035H69.502V18.5ZM79.1011 18.665C77.9938 18.665 77.1505 18.346 76.5711 17.708C75.9991 17.07 75.7131 16.1423 75.7131 14.925V14.342C75.7131 13.1393 76.0138 12.208 76.6151 11.548C77.2165 10.8807 78.0598 10.547 79.1451 10.547C80.0911 10.547 80.8391 10.789 81.3891 11.273C81.9465 11.757 82.2765 12.461 82.3791 13.385H81.2461C81.1728 12.7763 80.9601 12.318 80.6081 12.01C80.2561 11.6947 79.7685 11.537 79.1451 11.537C78.3971 11.537 77.8215 11.7827 77.4181 12.274C77.0221 12.7653 76.8241 13.4767 76.8241 14.408V14.881C76.8241 15.7683 77.0221 16.4467 77.4181 16.916C77.8141 17.3853 78.3898 17.62 79.1451 17.62C79.7758 17.62 80.2708 17.455 80.6301 17.125C80.9968 16.7877 81.2131 16.3037 81.2791 15.673H82.4341C82.3315 16.6557 81.9978 17.4 81.4331 17.906C80.8685 18.412 80.0911 18.665 79.1011 18.665ZM94.6592 20.172V18.5H88.5982V20.172H87.5642V17.565H88.4222C88.7228 17.1617 88.9392 16.6923 89.0712 16.157C89.2032 15.6143 89.2875 14.7747 89.3242 13.638L89.4452 10.679H94.6812V17.565H95.6932V20.172H94.6592ZM90.4462 11.614L90.3692 13.627C90.3325 14.705 90.2628 15.5227 90.1602 16.08C90.0648 16.6373 89.8998 17.1323 89.6652 17.565H93.6032V11.614H90.4462ZM100.134 10.547C101.021 10.547 101.714 10.7413 102.213 11.13C102.719 11.5113 102.972 12.043 102.972 12.725C102.972 13.1503 102.865 13.5133 102.653 13.814C102.44 14.1073 102.132 14.3237 101.729 14.463C102.191 14.6097 102.539 14.8407 102.774 15.156C103.008 15.464 103.126 15.8563 103.126 16.333C103.126 17.059 102.854 17.6273 102.312 18.038C101.776 18.4487 101.036 18.654 100.09 18.654C99.0556 18.654 98.2636 18.4193 97.7136 17.95C97.1709 17.4733 96.8959 16.7877 96.8886 15.893H97.9886C97.9959 16.509 98.1719 16.9673 98.5166 17.268C98.8686 17.5613 99.3966 17.708 100.101 17.708C100.717 17.708 101.193 17.5833 101.531 17.334C101.868 17.0847 102.037 16.729 102.037 16.267C102.037 15.8343 101.905 15.5227 101.641 15.332C101.384 15.134 100.97 15.035 100.398 15.035H99.1546V14.089H100.31C100.845 14.089 101.237 13.99 101.487 13.792C101.743 13.5867 101.872 13.2713 101.872 12.846C101.872 12.4133 101.718 12.0797 101.41 11.845C101.109 11.6103 100.676 11.493 100.112 11.493C99.4736 11.493 98.9822 11.647 98.6376 11.955C98.3002 12.2557 98.1279 12.6957 98.1206 13.275H97.0096C97.0462 12.4243 97.3396 11.757 97.8896 11.273C98.4396 10.789 99.1876 10.547 100.134 10.547ZM106.079 17.543H110.545V18.5H105.034V10.679H110.38V11.614H106.079V14.089H109.731V15.024H106.079V17.543ZM113.461 18.5H112.383V10.679H113.461V14.078H117.388V10.679H118.466V18.5H117.388V15.09H113.461V18.5Z" fill="#50776A"/>
<rect x="1.25" y="0.5" width="132" height="29" rx="3.5" stroke="#50776A"/>
<defs>
<clipPath id="clip0_6_553">
<rect width="14" height="14" fill="white" transform="translate(14.75 8)"/>
</clipPath>
</defs>
</svg>
