<svg width="103" height="30" viewBox="0 0 103 30" fill="none" xmlns="http://www.w3.org/2000/svg">
<path d="M28.2074 11.6305C28.0464 11.0281 27.572 10.5537 26.9696 10.3927C25.878 10.1001 21.5 10.1001 21.5 10.1001C21.5 10.1001 17.122 10.1001 16.0304 10.3927C15.428 10.5537 14.9536 11.0281 14.7926 11.6305C14.5 12.7221 14.5 15.0001 14.5 15.0001C14.5 15.0001 14.5 17.2781 14.7926 18.3697C14.9536 18.9721 15.428 19.4465 16.0304 19.6075C17.122 19.9001 21.5 19.9001 21.5 19.9001C21.5 19.9001 25.878 19.9001 26.9696 19.6075C27.572 19.4465 28.0464 18.9721 28.2074 18.3697C28.5 17.2781 28.5 15.0001 28.5 15.0001C28.5 15.0001 28.5 12.7221 28.2074 11.6305ZM20.1 17.1001V12.9001L23.7372 15.0001L20.1 17.1001Z" fill="#50776A"/>
<path d="M38.482 15.42V18.5H37.371V15.42L34.709 10.679H35.886L37.943 14.408L40.121 10.679H41.298L38.482 15.42ZM45.4765 18.665C44.3765 18.665 43.5405 18.346 42.9685 17.708C42.4039 17.07 42.1215 16.135 42.1215 14.903V14.364C42.1215 13.1687 42.4185 12.2337 43.0125 11.559C43.6065 10.8843 44.4279 10.547 45.4765 10.547C46.5325 10.547 47.3575 10.8843 47.9515 11.559C48.5529 12.2337 48.8535 13.1687 48.8535 14.364V14.903C48.8535 16.1057 48.5565 17.0333 47.9625 17.686C47.3759 18.3387 46.5472 18.665 45.4765 18.665ZM45.4765 17.675C46.2025 17.675 46.7599 17.433 47.1485 16.949C47.5445 16.465 47.7425 15.772 47.7425 14.87V14.408C47.7425 13.4767 47.5445 12.7617 47.1485 12.263C46.7599 11.7643 46.2025 11.515 45.4765 11.515C44.7505 11.515 44.1932 11.7643 43.8045 12.263C43.4232 12.7543 43.2325 13.4657 43.2325 14.397V14.87C43.2325 15.7867 43.4232 16.4833 43.8045 16.96C44.1859 17.4367 44.7432 17.675 45.4765 17.675ZM53.8115 18.665C52.7775 18.665 52.0149 18.379 51.5235 17.807C51.0395 17.2277 50.7975 16.3257 50.7975 15.101V10.679H51.8975V15.057C51.8975 15.959 52.0479 16.6153 52.3485 17.026C52.6565 17.4293 53.1442 17.631 53.8115 17.631C54.4715 17.631 54.9482 17.4293 55.2415 17.026C55.5422 16.6227 55.6925 15.9663 55.6925 15.057V10.679H56.8145V15.101C56.8145 16.2963 56.5652 17.191 56.0665 17.785C55.5752 18.3717 54.8235 18.665 53.8115 18.665ZM64.2657 10.679V11.636H61.8787V18.5H60.7897V11.636H58.5017V10.679H64.2657ZM68.9623 18.665C67.9283 18.665 67.1656 18.379 66.6743 17.807C66.1903 17.2277 65.9483 16.3257 65.9483 15.101V10.679H67.0483V15.057C67.0483 15.959 67.1986 16.6153 67.4993 17.026C67.8073 17.4293 68.295 17.631 68.9623 17.631C69.6223 17.631 70.099 17.4293 70.3923 17.026C70.693 16.6227 70.8433 15.9663 70.8433 15.057V10.679H71.9653V15.101C71.9653 16.2963 71.716 17.191 71.2173 17.785C70.726 18.3717 69.9743 18.665 68.9623 18.665ZM80.1868 16.311C80.1868 17.037 79.9374 17.5833 79.4388 17.95C78.9474 18.3167 78.2104 18.5 77.2278 18.5H74.2028V10.679H77.1508C78.1188 10.679 78.8411 10.844 79.3178 11.174C79.7944 11.504 80.0328 12.0063 80.0328 12.681C80.0328 13.1577 79.9264 13.5463 79.7138 13.847C79.5084 14.1403 79.1931 14.3567 78.7678 14.496C79.2518 14.628 79.6074 14.8443 79.8348 15.145C80.0694 15.4383 80.1868 15.827 80.1868 16.311ZM75.2478 14.056H77.1948C77.7888 14.0633 78.2324 13.9607 78.5258 13.748C78.8264 13.5353 78.9768 13.2127 78.9768 12.78C78.9768 12.362 78.8301 12.0577 78.5368 11.867C78.2508 11.669 77.7998 11.57 77.1838 11.57H75.2478V14.056ZM79.0978 16.234C79.0978 15.794 78.9364 15.4677 78.6138 15.255C78.2984 15.0423 77.8034 14.936 77.1288 14.936H75.2478V17.576H77.1068C77.7888 17.576 78.2911 17.4697 78.6138 17.257C78.9364 17.037 79.0978 16.696 79.0978 16.234ZM83.1025 17.543H87.5685V18.5H82.0575V10.679H87.4035V11.614H83.1025V14.089H86.7545V15.024H83.1025V17.543Z" fill="#50776A"/>
<rect x="1" y="1" width="101" height="28" rx="3.5" stroke="#50776A"/>
</svg>
